HIERARCHY
ROOT Hips
{
  OFFSET 158.664 92.3157 1064.07
  CHANNELS 6 Xposition Yposition Zposition Zrotation Xrotation Yrotation
  JOINT Spine
  {
    OFFSET 4.11522e-05 8 -1.43068e-05
    CHANNELS 6 Xposition Yposition Zposition Zrotation Xrotation Yrotation
    JOINT Spine1
    {
      OFFSET -6.24818e-05 8 -0.00124198
      CHANNELS 6 Xposition Yposition Zposition Zrotation Xrotation Yrotation
      JOINT Spine2
      {
        OFFSET -0.000186498 8 -0.00347672
        CHANNELS 6 Xposition Yposition Zposition Zrotation Xrotation Yrotation
        JOINT Spine3
        {
          OFFSET 0 8 0
          CHANNELS 6 Xposition Yposition Zposition Zrotation Xrotation Yrotation
          JOINT Neck
          {
            OFFSET -7.8409e-05 17.0003 -0.000370467
            CHANNELS 6 Xposition Yposition Zposition Zrotation Xrotation Yrotation
            JOINT Head
            {
              OFFSET 0.000140003 10.8 -4.12669e-05
              CHANNELS 6 Xposition Yposition Zposition Zrotation Xrotation Yrotation
              End Site
              {
                OFFSET 0 20.25 0
              }
            }
          }
          JOINT LeftShoulder
          {
            OFFSET 4.99994 17 -0.000390063
            CHANNELS 6 Xposition Yposition Zposition Zrotation Xrotation Yrotation
            JOINT LeftShoulder2
            {
              OFFSET 6.45 0 0
              CHANNELS 6 Xposition Yposition Zposition Zrotation Xrotation Yrotation
              JOINT LeftArm
              {
                OFFSET 6.45004 0.000140544 0.000165107
                CHANNELS 6 Xposition Yposition Zposition Zrotation Xrotation Yrotation
                JOINT LeftForeArm
                {
                  OFFSET 3.69169e-05 -32.4 -1.99263
                  CHANNELS 6 Xposition Yposition Zposition Zrotation Xrotation Yrotation
                  JOINT LeftHand
                  {
                    OFFSET 1.9531e-05 -25.6502 2.00012
                    CHANNELS 6 Xposition Yposition Zposition Zrotation Xrotation Yrotation
                    JOINT LeftHandThumb1
                    {
                      OFFSET -0.500851 -1.49881 2.64981
                      CHANNELS 6 Xposition Yposition Zposition Zrotation Xrotation Yrotation
                      JOINT LeftHandThumb2
                      {
                        OFFSET -0.00206808 -3.80008 3.70005
                        CHANNELS 6 Xposition Yposition Zposition Zrotation Xrotation Yrotation
                        JOINT LeftHandThumb3
                        {
                          OFFSET -0.00117728 -3.00086 2.70003
                          CHANNELS 6 Xposition Yposition Zposition Zrotation Xrotation Yrotation
                          End Site
                          {
                            OFFSET 0.00196897 -2.30005 1.80027
                          }
                        }
                      }
                    }
                    JOINT LeftHandIndex
                    {
                      OFFSET -0.000117233 -1.90268 1.59979
                      CHANNELS 6 Xposition Yposition Zposition Zrotation Xrotation Yrotation
                      JOINT LeftHandIndex1
                      {
                        OFFSET 0.000587177 -8.2975 1.90004
                        CHANNELS 6 Xposition Yposition Zposition Zrotation Xrotation Yrotation
                        JOINT LeftHandIndex2
                        {
                          OFFSET -0.000350915 -4.49799 1.74947e-05
                          CHANNELS 6 Xposition Yposition Zposition Zrotation Xrotation Yrotation
                          JOINT LeftHandIndex3
                          {
                            OFFSET -0.000231433 -3.40251 -0.000122683
                            CHANNELS 6 Xposition Yposition Zposition Zrotation Xrotation Yrotation
                            End Site
                            {
                              OFFSET -0.0022704 -2.59999 5.58787e-05
                            }
                          }
                        }
                      }
                    }
                    JOINT LeftHandMiddle
                    {
                      OFFSET -0.248563 -2.20001 0.400002
                      CHANNELS 6 Xposition Yposition Zposition Zrotation Xrotation Yrotation
                      JOINT LeftHandMiddle1
                      {
                        OFFSET -0.000318076 -8.30036 0.999897
                        CHANNELS 6 Xposition Yposition Zposition Zrotation Xrotation Yrotation
                        JOINT LeftHandMiddle2
                        {
                          OFFSET -0.00319668 -4.65023 3.9592e-05
                          CHANNELS 6 Xposition Yposition Zposition Zrotation Xrotation Yrotation
                          JOINT LeftHandMiddle3
                          {
                            OFFSET -0.00179702 -3.30014 5.6872e-05
                            CHANNELS 6 Xposition Yposition Zposition Zrotation Xrotation Yrotation
                            End Site
                            {
                              OFFSET -0.00033089 -2.69829 -6.43807e-05
                            }
                          }
                        }
                      }
                    }
                    JOINT LeftHandRing
                    {
                      OFFSET -0.498243 -2.15083 -0.800084
                      CHANNELS 6 Xposition Yposition Zposition Zrotation Xrotation Yrotation
                      JOINT LeftHandRing1
                      {
                        OFFSET 0.00375294 -7.74961 -0.200012
                        CHANNELS 6 Xposition Yposition Zposition Zrotation Xrotation Yrotation
                        JOINT LeftHandRing2
                        {
                          OFFSET 2.39928e-05 -3.79832 2.32881e-05
                          CHANNELS 6 Xposition Yposition Zposition Zrotation Xrotation Yrotation
                          JOINT LeftHandRing3
                          {
                            OFFSET -3.11989e-05 -3.39996 3.17909e-05
                            CHANNELS 6 Xposition Yposition Zposition Zrotation Xrotation Yrotation
                            End Site
                            {
                              OFFSET 5.49651e-05 -2.60316 -0.000413382
                            }
                          }
                        }
                      }
                    }
                    JOINT LeftHandPinky
                    {
                      OFFSET -0.747847 -1.75028 -1.85013
                      CHANNELS 6 Xposition Yposition Zposition Zrotation Xrotation Yrotation
                      JOINT LeftHandPinky1
                      {
                        OFFSET 0.00231516 -7.15374 -0.999934
                        CHANNELS 6 Xposition Yposition Zposition Zrotation Xrotation Yrotation
                        JOINT LeftHandPinky2
                        {
                          OFFSET 4.92245e-05 -2.99863 -7.63789e-05
                          CHANNELS 6 Xposition Yposition Zposition Zrotation Xrotation Yrotation
                          JOINT LeftHandPinky3
                          {
                            OFFSET -8.02993e-05 -2.34974 4.07286e-05
                            CHANNELS 6 Xposition Yposition Zposition Zrotation Xrotation Yrotation
                            End Site
                            {
                              OFFSET 2.17123e-05 -2.09984 0.000126981
                            }
                          }
                        }
                      }
                    }
                  }
                }
              }
            }
          }
          JOINT RightShoulder
          {
            OFFSET -5.00008 17 -8.40887e-05
            CHANNELS 6 Xposition Yposition Zposition Zrotation Xrotation Yrotation
            JOINT RightShoulder2
            {
              OFFSET -6.45 0 0
              CHANNELS 6 Xposition Yposition Zposition Zrotation Xrotation Yrotation
              JOINT RightArm
              {
                OFFSET -6.44989 -0.000145104 0.000307163
                CHANNELS 6 Xposition Yposition Zposition Zrotation Xrotation Yrotation
                JOINT RightForeArm
                {
                  OFFSET -0.000110855 -32.4 -1.99998
                  CHANNELS 6 Xposition Yposition Zposition Zrotation Xrotation Yrotation
                  JOINT RightHand
                  {
                    OFFSET 9.18368e-05 -25.6499 1.99742
                    CHANNELS 6 Xposition Yposition Zposition Zrotation Xrotation Yrotation
                    JOINT RightHandThumb1
                    {
                      OFFSET 0.499655 -1.50004 2.65003
                      CHANNELS 6 Xposition Yposition Zposition Zrotation Xrotation Yrotation
                      JOINT RightHandThumb2
                      {
                        OFFSET 3.67719e-05 -3.79999 3.70006
                        CHANNELS 6 Xposition Yposition Zposition Zrotation Xrotation Yrotation
                        JOINT RightHandThumb3
                        {
                          OFFSET -6.11303e-05 -3.00001 2.69997
                          CHANNELS 6 Xposition Yposition Zposition Zrotation Xrotation Yrotation
                          End Site
                          {
                            OFFSET -4.89262e-05 -2.29999 1.80001
                          }
                        }
                      }
                    }
                    JOINT RightHandIndex
                    {
                      OFFSET 0.00215605 -1.90138 1.59987
                      CHANNELS 6 Xposition Yposition Zposition Zrotation Xrotation Yrotation
                      JOINT RightHandIndex1
                      {
                        OFFSET -0.000700694 -8.30002 1.89998
                        CHANNELS 6 Xposition Yposition Zposition Zrotation Xrotation Yrotation
                        JOINT RightHandIndex2
                        {
                          OFFSET -5.71694e-05 -4.49993 0.000761897
                          CHANNELS 6 Xposition Yposition Zposition Zrotation Xrotation Yrotation
                          JOINT RightHandIndex3
                          {
                            OFFSET -0.000337022 -3.40022 -0.000138491
                            CHANNELS 6 Xposition Yposition Zposition Zrotation Xrotation Yrotation
                            End Site
                            {
                              OFFSET -0.000801322 -2.59998 7.56927e-05
                            }
                          }
                        }
                      }
                    }
                    JOINT RightHandMiddle
                    {
                      OFFSET 0.252864 -2.20003 0.399925
                      CHANNELS 6 Xposition Yposition Zposition Zrotation Xrotation Yrotation
                      JOINT RightHandMiddle1
                      {
                        OFFSET 0.00206031 -8.30001 1.00012
                        CHANNELS 6 Xposition Yposition Zposition Zrotation Xrotation Yrotation
                        JOINT RightHandMiddle2
                        {
                          OFFSET 1.16141e-05 -4.64998 -0.000112718
                          CHANNELS 6 Xposition Yposition Zposition Zrotation Xrotation Yrotation
                          JOINT RightHandMiddle3
                          {
                            OFFSET -0.000764348 -3.29988 0.000915375
                            CHANNELS 6 Xposition Yposition Zposition Zrotation Xrotation Yrotation
                            End Site
                            {
                              OFFSET 0.00225724 -2.70484 0
                            }
                          }
                        }
                      }
                    }
                    JOINT RightHandRing
                    {
                      OFFSET 0.501222 -2.14997 -0.799589
                      CHANNELS 6 Xposition Yposition Zposition Zrotation Xrotation Yrotation
                      JOINT RightHandRing1
                      {
                        OFFSET -0.000900395 -7.74997 -0.200144
                        CHANNELS 6 Xposition Yposition Zposition Zrotation Xrotation Yrotation
                        JOINT RightHandRing2
                        {
                          OFFSET 1.5952e-05 -3.79636 2.40988e-05
                          CHANNELS 6 Xposition Yposition Zposition Zrotation Xrotation Yrotation
                          JOINT RightHandRing3
                          {
                            OFFSET 0.00156522 -3.4 -1.48463e-05
                            CHANNELS 6 Xposition Yposition Zposition Zrotation Xrotation Yrotation
                            End Site
                            {
                              OFFSET -0.000753277 -2.59843 9.62772e-05
                            }
                          }
                        }
                      }
                    }
                    JOINT RightHandPinky
                    {
                      OFFSET 0.750501 -1.74997 -1.84988
                      CHANNELS 6 Xposition Yposition Zposition Zrotation Xrotation Yrotation
                      JOINT RightHandPinky1
                      {
                        OFFSET -0.000763845 -7.15007 -1.00003
                        CHANNELS 6 Xposition Yposition Zposition Zrotation Xrotation Yrotation
                        JOINT RightHandPinky2
                        {
                          OFFSET 2.72261e-05 -3.00116 0.000169323
                          CHANNELS 6 Xposition Yposition Zposition Zrotation Xrotation Yrotation
                          JOINT RightHandPinky3
                          {
                            OFFSET 0.00119876 -2.34998 -7.27956e-05
                            CHANNELS 6 Xposition Yposition Zposition Zrotation Xrotation Yrotation
                            End Site
                            {
                              OFFSET 0.000114313 -2.10061 0.00170224
                            }
                          }
                        }
                      }
                    }
                  }
                }
              }
            }
          }
        }
      }
    }
  }
  JOINT LeftUpLeg
  {
    OFFSET 7.99996 0 1.29126e-05
    CHANNELS 6 Xposition Yposition Zposition Zrotation Xrotation Yrotation
    JOINT LeftLeg
    {
      OFFSET 0.000117143 -45 -0.993699
      CHANNELS 6 Xposition Yposition Zposition Zrotation Xrotation Yrotation
      JOINT LeftFoot
      {
        OFFSET 3.90835e-05 -41 -2.00398
        CHANNELS 6 Xposition Yposition Zposition Zrotation Xrotation Yrotation
        JOINT LeftToeBase
        {
          OFFSET -4.91441e-05 -7.5 12.5036
          CHANNELS 6 Xposition Yposition Zposition Zrotation Xrotation Yrotation
          JOINT LeftFootToe
          {
            OFFSET 0 0 4
            CHANNELS 6 Xposition Yposition Zposition Zrotation Xrotation Yrotation
            End Site
            {
              OFFSET 0 0 0
            }
          }
        }
      }
    }
  }
  JOINT RightUpLeg
  {
    OFFSET -7.99996 0 -1.29126e-05
    CHANNELS 6 Xposition Yposition Zposition Zrotation Xrotation Yrotation
    JOINT RightLeg
    {
      OFFSET 0.000775671 -45 -0.999424
      CHANNELS 6 Xposition Yposition Zposition Zrotation Xrotation Yrotation
      JOINT RightFoot
      {
        OFFSET 0.00146145 -41 -1.99997
        CHANNELS 6 Xposition Yposition Zposition Zrotation Xrotation Yrotation
        JOINT RightToeBase
        {
          OFFSET -0.000449081 -7.5 12.5001
          CHANNELS 6 Xposition Yposition Zposition Zrotation Xrotation Yrotation
          JOINT RightFootToe
          {
            OFFSET 0 0 4
            CHANNELS 6 Xposition Yposition Zposition Zrotation Xrotation Yrotation
            End Site
            {
              OFFSET 0 0 0
            }
          }
        }
      }
    }
  }
}
MOTION
Frames:	3
Frame Time:	0.0111111
159.026 93.1828 1063.47 -0.881611 -3.04272 73.933 0 8 0 2.92921 1.23574 -6.01635 -1.13687e-13 8 0 0.0426183 -0.241746 -2.11001 0 8 0 0.0224391 -0.120725 -1.05488 0 8 0 0.0224213 -0.12043 -1.0547 -1.13687e-13 17 0 -1.49672 5.69051 10.3925 1.13687e-13 10.8 0 1.739 2.2762 24.3239 5 17 0 -7.98158 -0.640398 -1.81563 6.45 2.84217e-14 0 -1.85872 -1.3007 -0.198367 6.45 0 1.13687e-13 21.2299 -36.8367 35.2325 2.27374e-13 -32.4 -2 22.2481 -63.7522 82.7092 0 -25.65 2 1.84901 3.74696 13.0958 -0.5 -1.5 2.65 23.6125 -25.8667 -84.0439 0 -3.8 3.7 -0.152979 16.7932 -0.640604 -1.13687e-13 -3 2.7 0.0563478 35.6505 -0.714641 -2.84217e-14 -1.9 1.6 4.75376e-06 1.10388e-05 1.45518e-05 0 -8.3 1.9 -21.6597 26.9097 6.00995 2.22045e-15 -4.5 -1.13687e-13 -6.24987 0.0540355 -0.0985375 -4.26326e-14 -3.4 0 -5.54177 0.0527507 -0.0773879 -0.25 -2.2 0.4 4.75376e-06 1.10388e-05 1.45518e-05 0 -8.3 1 -34.6887 23.6308 9.6271 0 -4.65 1.13687e-13 -13.5324 0.15275 -0.223188 -2.84217e-14 -3.3 0 -11.0908 0.142659 -0.144 -0.5 -2.15 -0.8 4.75376e-06 1.10388e-05 1.45518e-05 -2.84217e-14 -7.75 -0.2 -41.4082 22.0879 11.8606 5.68434e-14 -3.8 -1.13687e-13 -20.5873 0.0621388 -0.0547629 5.68434e-14 -3.4 0 -15.7514 0.057479 -0.019436 -0.75 -1.75 -1.85 4.75376e-06 1.10388e-05 1.45518e-05 -2.84217e-14 -7.15 -1 -53.5734 20.5104 16.1981 5.68434e-14 -3 0 0.201394 -0.0244269 0.00212016 -2.84217e-14 -2.35 0 0.125961 -0.0170205 -0.000952618 -5 17 0 -4.62083 2.55603 -1.19356 -6.45 2.84217e-14 0 -1.82087 -0.00225822 -0.167475 -6.45 0 0 6.59816 -56.3058 56.5501 0 -32.4 -2 38.9882 -54.9518 27.6354 0 -25.65 2 -39.2614 8.58155 14.8681 0.5 -1.5 2.65 52.9871 54.0862 -39.3053 0 -3.8 3.7 0.2501 -0.537757 0.0211046 -2.27374e-13 -3 2.7 0.0319519 43.8577 -0.0269512 1.13687e-13 -1.9 1.6 -5.89776e-05 2.32588e-05 -2.87501e-05 1.13687e-13 -8.3 1.9 30.7497 20.0576 -6.00989 0 -4.5 1.13687e-13 14.505 -0.0125582 -0.00633593 1.13687e-13 -3.4 0 12.1405 -0.0099122 0.00363322 0.25 -2.2 0.4 -5.89776e-05 2.32588e-05 -2.87501e-05 0 -8.3 1 48.9462 18.3041 -10.6602 0 -4.65 0 63.2214 -0.0257331 0.0605491 -2.84217e-14 -3.3 0 44.848 0.0228614 0.0568986 0.5 -2.15 -0.8 -5.89776e-05 2.32588e-05 -2.87501e-05 0 -7.75 -0.2 63.6093 15.9576 -15.1075 0 -3.8 0 88.1653 -0.00566842 -0.0106737 0 -3.4 0 83.8966 -0.0111034 0.00981701 0.75 -1.75 -1.85 -5.89776e-05 2.32588e-05 -2.87501e-05 1.13687e-13 -7.15 -1 85.2892 5.85629 -17.3435 0 -3 1.13687e-13 88.9269 -0.0168407 -0.0148671 -1.13687e-13 -2.35 1.13687e-13 86.3581 -0.0580998 0.0600705 8 -2.13163e-14 0 14.9908 -7.97119 34.1771 0 -45 -1 0.182753 26.4631 -7.0172 0 -41 -2 -3.18913 -17.1711 7.86408 -2.27374e-13 -7.5 12.5 4.2732e-06 3.42798e-05 -9.57521e-06 0 -3.55271e-15 4 2.30125 -6.83636 -6.18813 -8 7.10543e-15 -1.13687e-13 -5.37336 14.8615 -15.9625 0 -45 -1 0.422726 2.74224 3.27275 0 -41 -2 9.57654 -0.72586 6.93845 0 -7.5 12.5 -4.2145e-06 -14.4499 -4.37648e-05 0 -4.44089e-16 4 -8.29108 14.4362 11.6257 
158.887 93.1931 1063.61 -0.869878 -3.0343 74.0907 0 8 0 2.9863 1.25446 -6.05754 1.13687e-13 8 -1.13687e-13 0.0176127 -0.255377 -2.12749 0 8 -1.13687e-13 0.0100075 -0.127697 -1.06372 0 8 0 0.00994499 -0.127211 -1.06294 0 17 -1.13687e-13 -1.40794 5.73429 10.3916 0 10.8 0 1.73612 2.31063 24.3302 5 17 0 -7.83032 -0.608983 -1.84802 6.45 0 1.13687e-13 -1.85743 -1.29977 -0.206839 6.45 0 0 20.8733 -37.1609 34.5275 0 -32.4 -2 23.9002 -64.2114 84.6984 0 -25.65 2 0.441037 4.62397 15.3721 -0.5 -1.5 2.65 23.15 -27.2204 -85.5895 0 -3.8 3.7 -0.0630268 20.165 -0.425093 0 -3 2.7 0.0235541 39.2431 -0.398114 -2.84217e-14 -1.9 1.6 4.75376e-06 1.10388e-05 1.45518e-05 -1.42109e-14 -8.3 1.9 -27.4632 28.6152 8.08588 0 -4.5 -1.13687e-13 -5.00699 0.0158619 -0.0636747 -2.84217e-14 -3.4 0 -4.43697 0.0174558 -0.0536793 -0.25 -2.2 0.4 4.75376e-06 1.10388e-05 1.45518e-05 1.42109e-14 -8.3 1 -42.0012 23.7044 11.5731 0 -4.65 1.13687e-13 -14.6104 0.15716 -0.18136 0 -3.3 0 -11.8068 0.137882 -0.109132 -0.5 -2.15 -0.8 4.75376e-06 1.10388e-05 1.45518e-05 -2.84217e-14 -7.75 -0.2 -47.0241 20.9205 12.6388 0 -3.8 -1.13687e-13 -22.9386 0.106065 -0.105483 0 -3.4 1.13687e-13 -17.18 0.0920574 -0.0423873 -0.75 -1.75 -1.85 4.75376e-06 1.10388e-05 1.45518e-05 -1.42109e-14 -7.15 -1 -60.6508 17.4533 16.7409 5.68434e-14 -3 0 0.205031 -0.0163319 0.00161287 -5.68434e-14 -2.35 0 0.161407 -0.0124923 -8.4397e-05 -5 17 0 -4.58071 2.47552 -1.19386 -6.45 0 0 -1.81361 0.00419512 -0.132489 -6.45 2.84217e-14 0 7.04791 -55.8267 55.9996 1.13687e-13 -32.4 -2 38.5816 -54.79 27.5451 1.13687e-13 -25.65 2 -38.6158 9.42285 13.5458 0.5 -1.5 2.65 49.9124 55.2517 -36.2893 -2.27374e-13 -3.8 3.7 0.250098 -0.537757 0.0208623 0 -3 2.7 0.0317147 43.8577 -0.0268994 1.13687e-13 -1.9 1.6 -5.89776e-05 2.32588e-05 -2.87501e-05 -1.13687e-13 -8.3 1.9 31.0231 20.5583 -6.23094 0 -4.5 0 14.4895 0.00970365 -0.00646032 0 -3.4 0 12.1331 0.00576905 0.00469925 0.25 -2.2 0.4 -5.89776e-05 2.32588e-05 -2.87501e-05 0 -8.3 1 49.4936 18.6138 -10.9636 0 -4.65 0 63.5451 -0.013485 0.0384584 -2.84217e-14 -3.3 0 45.14 0.0165635 0.03434 0.5 -2.15 -0.8 -5.89776e-05 2.32588e-05 -2.87501e-05 0 -7.75 -0.2 64.1163 16.0784 -15.3738 0 -3.8 0 88.1521 -0.00650551 -0.0116885 0 -3.4 0 83.8371 -0.0250996 0.0125308 0.75 -1.75 -1.85 -5.89776e-05 2.32588e-05 -2.87501e-05 0 -7.15 -1 85.6766 5.77382 -17.5543 0 -3 0 88.7407 -0.0156784 -0.0118867 0 -2.35 -1.13687e-13 85.7589 -0.0440289 0.0502876 8 0 0 15.1847 -8.08801 34.3051 0 -45 -1 0.182238 26.6159 -7.02219 0 -41 -2 -3.2213 -17.3314 7.68556 0 -7.5 12.5 4.2732e-06 3.42798e-05 -9.57521e-06 0 0 4 2.3226 -6.72565 -6.20181 -8 7.10543e-15 0 -5.20703 14.8486 -15.9285 0 -45 -1 0.422592 2.74742 3.27632 0 -41 -2 9.47964 -0.912721 6.65076 -1.13687e-13 -7.5 12.5 -4.08961e-06 -14.2915 -4.37338e-05 0 2.22045e-16 4 -8.2299 14.2727 11.6316 
158.756 93.2016 1063.74 -0.860594 -3.03089 74.2311 -1.13687e-13 8 5.68434e-14 3.05503 1.26387 -6.1009 2.27374e-13 8 -1.13687e-13 -0.00943162 -0.267584 -2.14621 0 8 1.13687e-13 -0.00344845 -0.133843 -1.07318 1.13687e-13 8 0 -0.00346219 -0.133823 -1.07298 0 17 0 -1.30946 5.77928 10.3951 0 10.8 0 1.7171 2.36483 24.3475 5 17 0 -7.67248 -0.59301 -1.88229 6.45 2.84217e-14 0 -1.85126 -1.29883 -0.207247 6.45 -2.84217e-14 0 20.6845 -37.3623 34.0163 0 -32.4 -2 25.1948 -64.4808 85.9193 0 -25.65 2 -0.412776 5.14184 17.4957 -0.5 -1.5 2.65 22.6624 -28.4914 -87.1253 0 -3.8 3.7 0.0462639 23.602 -0.250396 1.13687e-13 -3 2.7 -0.00284048 42.0654 -0.166532 -1.42109e-14 -1.9 1.6 4.75376e-06 1.10388e-05 1.45518e-05 0 -8.3 1.9 -32.938 29.9598 10.1093 -2.84217e-14 -4.5 0 -3.8885 -0.012077 -0.0292889 -5.68434e-14 -3.4 0 -3.43406 -0.00892637 -0.0280553 -0.25 -2.2 0.4 4.75376e-06 1.10388e-05 1.45518e-05 2.84217e-14 -8.3 1 -48.804 23.5507 13.3582 5.68434e-14 -4.65 -1.13687e-13 -15.8023 0.162968 -0.142778 -5.68434e-14 -3.3 0 -12.6166 0.135256 -0.077257 -0.5 -2.15 -0.8 4.75376e-06 1.10388e-05 1.45518e-05 -1.42109e-14 -7.75 -0.2 -52.2803 19.8531 13.402 5.68434e-14 -3.8 0 -25.5523 0.134145 -0.129173 -5.68434e-14 -3.4 0 -18.8134 0.110615 -0.0512728 -0.75 -1.75 -1.85 4.75376e-06 1.10388e-05 1.45518e-05 -3.55271e-14 -7.15 -1 -67.2554 14.5528 17.1445 0 -3 1.13687e-13 -0.0108269 0.000127917 4.85845e-05 0 -2.35 0 -0.010772 -2.86878e-05 4.23415e-06 -5 17 0 -4.50976 2.38789 -1.19256 -6.45 1.42109e-14 0 -1.80527 0.0100245 -0.0959786 -6.45 1.42109e-14 0 7.45549 -55.475 55.6093 -1.13687e-13 -32.4 -2 37.9704 -54.7167 27.6325 0 -25.65 2 -37.9482 10.2658 12.4139 0.5 -1.5 2.65 47.7689 55.9845 -34.224 0 -3.8 3.7 0.250095 -0.537757 0.0206146 0 -3 2.7 0.0314755 43.8577 -0.0268474 -1.13687e-13 -1.9 1.6 -5.89776e-05 2.32588e-05 -2.87501e-05 0 -8.3 1.9 30.976 20.8225 -6.30954 0 -4.5 -1.13687e-13 14.4093 0.0258257 -0.00454551 1.13687e-13 -3.4 1.13687e-13 12.0752 0.0172818 0.00573054 0.25 -2.2 0.4 -5.89776e-05 2.32588e-05 -2.87501e-05 -1.13687e-13 -8.3 1 49.7338 18.7905 -11.1228 1.13687e-13 -4.65 1.13687e-13 63.6722 -0.00592737 0.0241249 -5.68434e-14 -3.3 0 45.2587 0.0120198 0.0197585 0.5 -2.15 -0.8 -5.89776e-05 2.32588e-05 -2.87501e-05 0 -7.75 -0.2 64.4657 16.1199 -15.5337 -1.13687e-13 -3.8 -1.13687e-13 87.9724 -0.00457088 -0.0067831 5.68434e-14 -3.4 -1.13687e-13 83.3788 -0.0209931 0.0110087 0.75 -1.75 -1.85 -5.89776e-05 2.32588e-05 -2.87501e-05 0 -7.15 -1 85.9259 5.71352 -17.6852 0 -3 0 88.5376 -0.0121195 -0.00793272 0 -2.35 -1.13687e-13 85.1287 -0.027615 0.0355513 8 0 -5.68434e-14 15.3743 -8.19463 34.4381 0 -45 -1 0.181938 26.7565 -7.02412 -2.27374e-13 -41 -2 -3.24933 -17.4911 7.51228 2.27374e-13 -7.5 12.5 4.2732e-06 3.42798e-05 -9.57521e-06 -2.27374e-13 3.55271e-15 4 2.34165 -6.61955 -6.2102 -8 -1.42109e-14 -5.68434e-14 -5.04774 14.8348 -15.9093 0 -45 -1 0.422724 2.75082 3.27537 0 -41 -2 9.38526 -1.07184 6.4062 2.27374e-13 -7.5 12.5 -3.98407e-06 -14.1574 -4.37079e-05 1.13687e-13 0 4 -8.16561 14.1176 11.6333 
